<svg xmlns="http://www.w3.org/2000/svg" width="149" height="40" fill="none"><path fill="#fff" d="M10.13 30.6L6 23.1H4.84v7.5H0V10.76h8.12c1.57 0 2.9.27 4 .82 1.1.53 1.94 1.28 2.5 2.24.53.95.8 2 .8 3.17 0 1.3-.37 2.5-1.13 3.53-.75 1.03-1.85 1.77-3.3 2.2l4.6 7.85H10.1zm-5.3-10.9h3c.9 0 1.56-.23 2-.66.45-.43.67-1.04.67-1.84 0-.75-.22-1.34-.68-1.77-.43-.44-1.1-.65-1.98-.65h-3v4.9zm28.52 2.76c0 .45-.02.92-.08 1.4H22.32c.07 1 .38 1.74.93 2.27.57.5 1.25.76 2.07.76 1.2 0 2.04-.53 2.52-1.55H33c-.28 1.04-.76 1.97-1.46 2.8-.68.83-1.53 1.48-2.57 1.95-1.04.48-2.2.7-3.48.7-1.57 0-2.95-.32-4.16-.97-1.2-.66-2.15-1.6-2.83-2.83-.67-1.22-1-2.65-1-4.3 0-1.63.32-3.06 1-4.28.66-1.22 1.6-2.17 2.8-2.82 1.2-.66 2.6-1 4.18-1 1.5 0 2.87.33 4.06.97 1.2.64 2.12 1.55 2.78 2.74.68 1.2 1 2.6 1 4.17zM28.4 21.2c0-.84-.28-1.5-.85-2-.56-.48-1.27-.72-2.12-.72-.8 0-1.5.23-2.07.7-.54.47-.88 1.14-1.02 2h6.06zm17.13-6.54c1.85 0 3.32.6 4.42 1.8 1.1 1.2 1.67 2.83 1.67 4.92v9.2h-4.8v-8.55c0-1.05-.3-1.87-.83-2.45-.57-.6-1.3-.88-2.23-.88-.93 0-1.66.3-2.2.88-.56.58-.83 1.4-.83 2.45v8.56H35.9V14.8h4.85v2.1c.5-.7 1.15-1.25 1.98-1.65.83-.4 1.76-.62 2.8-.62zM63.8 26.5v4.1h-2.5c-1.75 0-3.12-.44-4.1-1.28-.98-.87-1.47-2.27-1.47-4.2v-6.28H53.8v-4h1.93V11h4.84v3.82h3.16v4H60.6v6.34c0 .47.1.8.33 1 .22.22.6.32 1.13.32h1.73z"/><path fill="#D6230C" d="M69 23.53C69 10.53 79.43 0 92.3 0h36.9C140.12 0 149 8.95 149 20s-8.87 20-19.8 20H69V23.53z"/><path fill="#fff" d="M98.1 16.25c-.35-.66-.87-1.16-1.55-1.5-.66-.35-1.44-.53-2.35-.53-1.56 0-2.82.52-3.76 1.55-.94 1.02-1.42 2.38-1.42 4.1 0 1.82.5 3.25 1.48 4.3 1 1 2.36 1.5 4.1 1.5 1.2 0 2.2-.3 3-.9.83-.6 1.44-1.46 1.8-2.6h-6.13v-3.55h10.53v4.5c-.36 1.2-.97 2.32-1.84 3.35-.85 1.04-1.93 1.88-3.26 2.52-1.32.62-2.8.94-4.47.94-1.96 0-3.72-.43-5.26-1.28-1.53-.86-2.73-2.06-3.6-3.58-.85-1.54-1.27-3.28-1.27-5.23 0-1.96.42-3.7 1.27-5.23.87-1.54 2.07-2.74 3.6-3.58 1.53-.87 3.27-1.3 5.23-1.3 2.38 0 4.38.57 6 1.72 1.65 1.15 2.73 2.74 3.26 4.77H98.1zM115.88 30c-1.87 0-3.6-.43-5.15-1.3-1.55-.86-2.8-2.07-3.7-3.6-.92-1.57-1.37-3.32-1.37-5.26s.45-3.68 1.36-5.23c.92-1.52 2.16-2.72 3.7-3.6 1.57-.86 3.3-1.3 5.16-1.3 1.87 0 3.58.44 5.12 1.3 1.57.88 2.8 2.08 3.68 3.6.9 1.57 1.36 3.3 1.36 5.25 0 1.94-.45 3.7-1.36 5.25-.9 1.53-2.13 2.74-3.68 3.6-1.55.87-3.25 1.3-5.12 1.3zm0-4.4c1.58 0 2.85-.53 3.8-1.58.95-1.06 1.44-2.45 1.44-4.18 0-1.75-.5-3.15-1.45-4.18-.94-1.06-2.2-1.58-3.8-1.58-1.6 0-2.88.5-3.84 1.55-.94 1.04-1.42 2.44-1.42 4.2 0 1.76.5 3.16 1.44 4.2.96 1.05 2.25 1.57 3.85 1.57zM135.1 9.28l-.56 13.52h-4.1l-.57-13.52h5.23zm-2.54 20.75c-.85 0-1.55-.24-2.1-.73-.53-.5-.8-1.13-.8-1.87 0-.75.27-1.38.8-1.9.55-.5 1.25-.75 2.1-.75.83 0 1.5.25 2.03.76.53.5.8 1.14.8 1.9 0 .73-.27 1.35-.8 1.86-.54.5-1.2.73-2.05.73z"/></svg>