<svg xmlns="http://www.w3.org/2000/svg" width="22" height="22" fill="none"><path fill="#A2A2A3" d="M3.24 2.58v3.65H14.2L8.87 2.58H3.24zm18.09 5.8c0-.2-.1-.4-.27-.53L9.88.1a.72.72 0 00-.36-.1h-8.2a.66.66 0 00-.48.2.58.58 0 00-.17.43v16.2H15.8a6.6 6.6 0 014.9-2.14c.16 0 .32-.07.45-.2.12-.1.18-.28.18-.45V8.38zm-16.67 3.7H2.6a.65.65 0 01-.64-.65c0-.36.28-.64.64-.64h2.06c.36 0 .65.27.65.63s-.28.64-.64.64zm12.24-5a.64.64 0 01-.62.44H2.6a.65.65 0 01-.64-.65V1.93c0-.35.28-.64.64-.64h6.47c.13 0 .25.03.36.1l7.22 4.94c.23.16.33.46.25.73zM.67 18.13v3.23c0 .35.28.64.64.64H13.4c.36 0 .65-.3.65-.64 0-1.17.3-2.27.83-3.23H.66z"/></svg>