<svg xmlns="http://www.w3.org/2000/svg" width="30" height="30" fill="none"><path fill="#00215D" d="M8.8 14.7a8.59 8.59 0 01-2.47-6.03 8.68 8.68 0 0117.34 0 8.69 8.69 0 01-6.64 8.43 2.34 2.34 0 11-.05-2.42A6.34 6.34 0 0015 2.34a6.34 6.34 0 00-6.33 6.33c0 1.65.64 3.2 1.8 4.4A1.17 1.17 0 018.8 14.7zm18.82 4.34c-1-.87-2.2-1.62-3.58-2.24a1.17 1.17 0 00-.96 2.14c1.17.52 2.18 1.15 3 1.86 1 .89 1.58 2.17 1.58 3.52v2.16c0 .65-.53 1.18-1.18 1.18H3.52c-.65 0-1.18-.53-1.18-1.18v-2.16c0-1.35.58-2.63 1.59-3.52.98-.86 2.75-2.04 5.63-2.8a1.17 1.17 0 10-.6-2.26 15.92 15.92 0 00-6.58 3.3A7.02 7.02 0 000 24.32v2.16A3.52 3.52 0 003.52 30h22.96A3.52 3.52 0 0030 26.48v-2.16c0-2.03-.87-3.95-2.38-5.28z"/></svg>