<svg xmlns="http://www.w3.org/2000/svg" width="22" height="20" fill="none"><path fill="#A2A2A3" d="M20.17 3.58h-4.6v-.9c0-1.02-.8-1.85-1.82-1.85h-5.5c-1 0-1.83.83-1.83 1.84v.9h-4.6C.82 3.57 0 4.4 0 5.42v2.75C0 9.17.82 10 1.83 10h7.34v-.46c0-.25.2-.46.46-.46h2.74c.26 0 .46.2.46.46V10h7.34c1 0 1.83-.82 1.83-1.83V5.42c0-1-.82-1.84-1.83-1.84zm-6.42 0h-5.5v-.9h5.5v.9zm8 6.92c-.16-.08-.35-.07-.48.04-.33.25-.7.38-1.1.38h-7.34v1.37c0 .23-.2.44-.46.44H9.63c-.26 0-.46-.2-.46-.46V10.9H1.83c-.4 0-.77-.13-1.1-.38-.13-.1-.32-.12-.48-.05-.15.07-.25.23-.25.4v6.43c0 1 .82 1.84 1.83 1.84h18.34c1 0 1.83-.83 1.83-1.84v-6.4c0-.17-.1-.33-.25-.4z"/></svg>