<svg xmlns="http://www.w3.org/2000/svg" width="19" height="22" fill="none"><path fill="#A2A2A3" d="M1.95 5.03l.48.5 1.3-1.2-.47-.5-1.3 1.2zm9.08 7.33H9v1.93h2.03v-1.95zM3.28 2.7l-.9-.87L0 4.03l.9.85 2.38-2.2zm9.92 7.62H6.83v6h6.35v-6zm-1.33 4.37c0 .1-.04.2-.12.26-.08.07-.2.1-.3.1H8.58c-.1 0-.22-.03-.3-.1-.08-.08-.12-.18-.12-.28v-2.74c0-.1.04-.2.12-.28.08-.07.2-.1.3-.1h2.87c.1 0 .22.03.3.1.08.08.12.18.12.28v2.73zM1.03 8.34v11.2c0 .65.27 1.27.76 1.73.47.46 1.13.72 1.8.72h12.8c.7 0 1.35-.26 1.83-.72.5-.46.76-1.08.76-1.73V1.03c0-.14-.04-.27-.1-.4-.03-.1-.1-.23-.2-.33s-.23-.17-.36-.22C18.2.03 18.06 0 17.92 0h-7.8c-.6 0-1.06.46-1.06 1.03v1.85c0 .1-.06.2-.14.3-.1.06-.2.1-.3.1H6.5c-.3 0-.56.1-.77.3L1.35 7.6c-.1.1-.18.22-.23.35-.06.12-.1.26-.1.4zm9.4-6.33c0-.3.13-.57.35-.78.23-.2.53-.33.84-.33h4.8c.05 0 .1.03.16.05.05.02.1.04.13.08.06.04.1.08.1.13.04.05.05.1.05.15 0 .7-.3 1.37-.82 1.86-.5.5-1.22.76-1.95.76h-3.2c-.24 0-.44-.15-.44-.37v-1.5zM3.8 7.96c-.05-.04-.1-.08-.1-.13-.03-.05-.04-.1-.04-.15 0-.05 0-.1.03-.15 0-.05.04-.1.1-.13.02-.04.06-.07.1-.1.07 0 .1-.02.18-.02.04 0 .1.02.15.04.05.02.1.05.13.08L6.6 9.53h6.83l2.25-2.13c.04-.03.08-.06.13-.08.08-.02.13-.03.18-.03.06 0 .1 0 .17 0 .05.03.1.06.13.1.04.03.07.07.1.12 0 .05.02.1.02.15 0 .06-.02.1-.04.15-.02.05-.05.1-.1.13l-2.23 2.13v6.46l2.24 2.1c.04.03.07.08.1.12 0 .05.03.1.03.16 0 .05 0 .1-.03.15-.02.04-.06.08-.1.12-.03.03-.08.06-.13.1-.05 0-.1 0-.16 0s-.1 0-.16-.02c-.05 0-.1-.04-.14-.08l-2.24-2.1H6.6l-2.22 2.1c-.08.07-.2.12-.3.12-.1 0-.2-.05-.3-.12-.07-.08-.12-.18-.12-.28 0-.1.05-.2.13-.28l2.2-2.1V10.1L3.8 7.95z"/></svg>