<svg xmlns="http://www.w3.org/2000/svg" width="30" height="30" fill="none"><g clip-path="url(#clip0)"><path fill="#00215D" d="M19.16 8.38a2.34 2.34 0 114.68 0 2.34 2.34 0 01-4.68 0zm-3.11 19.9l3.59-3.58a1.17 1.17 0 00-1.66-1.66l-3.59 3.59a3.5 3.5 0 01-4.97 0l-6.05-6.05a3.52 3.52 0 010-4.97L16.6 2.34h8.7c1.3 0 2.34 1.06 2.34 2.35v8.67l-5.47 5.48a1.17 1.17 0 001.65 1.66l5.82-5.83c.22-.22.35-.51.35-.82V4.69A4.7 4.7 0 0025.3 0h-9.19c-.3 0-.6.12-.83.34L1.71 13.95a5.87 5.87 0 000 8.28l6.05 6.05a5.82 5.82 0 008.29 0z"/></g><defs><clipPath id="clip0"><path fill="#fff" d="M0 0h30v30H0z"/></clipPath></defs></svg>