<svg xmlns="http://www.w3.org/2000/svg" width="30" height="30" fill="none"><path fill="#00215D" d="M27.94 14.12c-1.57-.28-3.06-1.2-3.62-1.58-.57-.4-1.23-.6-1.9-.6-.7 0-1.35.2-1.9.6-.58.38-2.07 1.3-3.64 1.58-1.2.2-2.06 1.24-2.06 2.45v4c0 5.93 6.83 9.04 7.12 9.17l.47.2.5-.2c.3-.13 7.1-3.24 7.1-9.18v-4c0-1.2-.86-2.23-2.05-2.44zm-.28 6.44c0 3.65-3.87 6.06-5.25 6.8-1.35-.74-5.22-3.15-5.22-6.8v-4c0-.06.05-.12.13-.14 1.94-.34 3.67-1.36 4.53-1.94.17-.12.38-.18.6-.18.2 0 .4.06.6.18.85.58 2.57 1.6 4.5 1.94.08.02.14.08.14.15v4zM30 3.52v8.9c-.5-.3-1.05-.5-1.65-.6-.2-.05-.45-.1-.7-.2v-8.1c0-.65-.52-1.18-1.17-1.18H3.52c-.65 0-1.18.53-1.18 1.18v22.96c0 .65.53 1.18 1.18 1.18H15.3c.48.55 1.02 1.08 1.62 1.6.32.27.63.5.94.74H3.52C1.58 30 0 28.42 0 26.48V3.52C0 1.58 1.58 0 3.52 0h22.96C28.42 0 30 1.58 30 3.52zm-10.08 4.1h-9.78V5.27h9.78v2.35z" clip-path="url(#a)"/><defs><clipPath id="a"><path fill="#fff" d="M0 0h30v30H0z"/></clipPath></defs></svg>